<svg width="29" height="25" viewBox="0 0 29 25" fill="none" xmlns="http://www.w3.org/2000/svg">
<path fill-rule="evenodd" clip-rule="evenodd" d="M25.5546 0.526313C23.1105 1.50208 22.3297 1.80841 20.5982 2.47187C19.6423 2.83809 18.3388 3.34176 17.7016 3.59119C16.4063 4.0981 15.2833 4.52967 13.1957 5.32304C12.4168 5.61898 11.432 6.00183 11.0071 6.1737C10.5823 6.34558 9.45263 6.78234 8.49675 7.1444C7.54086 7.50647 6.41118 7.94388 5.98634 8.1164C5.56151 8.2888 4.43183 8.72712 3.47594 9.09022C0.48779 10.2253 0 10.5079 0 11.1044C0 11.2807 0.126164 11.5066 0.289662 11.6229C0.561944 11.8165 4.00828 12.9769 6.43693 13.6926L7.53121 14.0152L8.68985 13.2881C9.32711 12.8882 10.1382 12.3746 10.4922 12.1468C10.8462 11.919 13.1635 10.459 15.6417 8.90237C18.12 7.34577 20.3504 5.94077 20.5982 5.7802C22.5541 4.51265 23.0201 4.25127 23.3494 4.23737C23.5559 4.22854 23.748 4.28752 23.7763 4.36832C23.8047 4.44913 21.8701 6.28764 19.4774 8.45378C17.0845 10.6199 14.6071 12.863 13.9717 13.4384C13.3365 14.0137 12.4576 14.8352 12.0186 15.2639L11.2206 16.0434L11.0236 19.2867C10.9154 21.0705 10.8501 22.5536 10.8787 22.5826C11.0877 22.7934 11.8496 22.2277 13.3942 20.7149C14.3761 19.7532 15.2318 18.9664 15.2959 18.9664C15.3599 18.9664 16.246 19.5806 17.265 20.3314C22.4479 24.1501 22.1311 23.94 22.8068 24.0055C23.4505 24.0679 23.8031 23.8943 24.0755 23.3808C24.179 23.1856 24.6632 21.0083 25.7508 15.8485C26.0446 14.4552 26.4835 12.3798 26.7263 11.2366C27.4547 7.80773 28.0308 5.09193 28.3799 3.44192C28.8085 1.41621 28.8113 0.740538 28.3927 0.318195C27.9173 -0.161569 27.1336 -0.104018 25.5546 0.526313Z" fill="white"/>
</svg>
